<svg xmlns="http://www.w3.org/2000/svg" viewBox="0 0 64 64"><defs><style>.a{fill:#7c7cff;}.b{fill:#fff;}</style></defs><title>logo</title><rect class="a" width="64" height="64" rx="12" ry="12"/><path class="b" d="M45.06,42.17a1,1,0,0,1,.76.34l2,2.17a16,16,0,0,1-5.59,4.16,19.05,19.05,0,0,1-7.92,1.49,18.64,18.64,0,0,1-7.36-1.4A16.12,16.12,0,0,1,21.31,45a17.75,17.75,0,0,1-3.61-6.06,22.64,22.64,0,0,1-1.28-7.78,21.29,21.29,0,0,1,1.38-7.78,17.77,17.77,0,0,1,3.86-6.08,17.29,17.29,0,0,1,6-3.94A20.29,20.29,0,0,1,35.27,12a17.1,17.1,0,0,1,12.47,4.77l-1.65,2.33a1.78,1.78,0,0,1-.42.43,1.16,1.16,0,0,1-.68.17,1.33,1.33,0,0,1-.72-0.25l-0.9-.62q-0.52-.37-1.23-0.79a10.87,10.87,0,0,0-1.68-.79,13.9,13.9,0,0,0-2.25-.62,15.7,15.7,0,0,0-3-.25,14.3,14.3,0,0,0-5.51,1,12.36,12.36,0,0,0-4.31,2.95A13.41,13.41,0,0,0,22.6,25a17.77,17.77,0,0,0-1,6.15,18.1,18.1,0,0,0,1,6.26,13.81,13.81,0,0,0,2.75,4.65A11.57,11.57,0,0,0,29.48,45a13.18,13.18,0,0,0,5.13,1,20.85,20.85,0,0,0,3-.2,12.33,12.33,0,0,0,2.47-.62,10.52,10.52,0,0,0,2.12-1.06,16.65,16.65,0,0,0,2-1.53A1.33,1.33,0,0,1,45.06,42.17Z"/></svg>